<?xml version="1.0" standalone="no"?>
<!DOCTYPE svg PUBLIC "-//W3C//DTD SVG 20010904//EN"
 "http://www.w3.org/TR/2001/REC-SVG-20010904/DTD/svg10.dtd">
<svg version="1.0" xmlns="http://www.w3.org/2000/svg"
 width="700.000000pt" height="700.000000pt" viewBox="0 0 700.000000 700.000000"
 preserveAspectRatio="xMidYMid meet">
<metadata>
Created by potrace 1.14, written by Peter Selinger 2001-2017
</metadata>
<g transform="translate(0.000000,700.000000) scale(0.100000,-0.100000)"
fill="#000000" stroke="none">
<path d="M4268 5675 c-30 -17 -73 -99 -82 -159 -4 -21 -8 -41 -11 -45 -2 -4
-6 -18 -9 -32 -2 -13 -22 -105 -45 -204 -22 -99 -43 -191 -45 -205 -3 -14 -19
-92 -36 -174 -17 -81 -36 -194 -42 -250 -10 -96 -10 -104 11 -143 38 -75 122
-96 192 -48 48 34 82 83 169 245 137 254 241 384 372 462 124 73 344 129 517
130 92 1 331 -5 331 -8 0 -2 -90 -203 -125 -279 -13 -27 -65 -142 -115 -255
-50 -113 -121 -270 -157 -350 -36 -80 -77 -170 -90 -200 -14 -30 -38 -83 -54
-118 -16 -35 -29 -65 -29 -67 0 -2 -19 -43 -41 -92 -23 -48 -58 -126 -79 -173
-38 -86 -147 -329 -193 -430 -13 -30 -75 -167 -137 -305 -62 -137 -124 -275
-137 -305 -14 -30 -54 -120 -90 -200 -36 -80 -75 -167 -88 -195 -13 -27 -61
-135 -108 -240 -47 -104 -102 -226 -122 -270 -67 -143 -77 -169 -95 -235 -23
-85 -11 -112 54 -129 55 -13 2735 -16 2781 -2 66 19 84 34 107 85 l23 51 -1
570 c0 568 -2 613 -23 654 -32 58 -128 64 -193 11 -60 -50 -86 -103 -193 -405
-81 -229 -138 -328 -264 -458 -64 -65 -92 -86 -176 -127 -152 -75 -243 -94
-452 -93 -94 0 -193 3 -220 6 -26 4 -93 9 -148 13 -55 3 -102 8 -104 10 -3 3
109 255 205 462 24 52 44 95 44 97 0 2 15 36 34 77 55 119 221 486 264 583 22
50 53 119 70 155 17 36 48 106 70 155 22 50 53 119 70 155 17 36 105 232 197
435 198 437 532 1177 568 1255 13 30 35 78 47 105 12 28 33 74 47 102 13 29
26 65 29 80 2 16 7 34 9 41 2 7 0 23 -5 36 -8 23 -20 30 -72 43 -13 3 -484 6
-1048 7 -1012 2 -1026 2 -1070 23 -51 23 -73 42 -113 96 -15 20 -41 44 -57 52
-36 19 -107 19 -142 0z"/>
<path d="M99 5519 c-72 -33 -73 -136 -1 -173 24 -13 78 -25 183 -41 36 -5 76
-39 98 -83 41 -78 41 -89 41 -1768 0 -1456 -1 -1617 -16 -1675 -27 -107 -58
-135 -179 -165 -38 -9 -83 -24 -100 -32 -27 -13 -74 -57 -76 -71 0 -3 -2 -15
-4 -26 -7 -36 7 -65 39 -82 28 -15 103 -17 751 -18 751 -1 811 2 840 41 25 33
19 89 -14 122 -28 27 -120 62 -166 62 -28 0 -83 41 -96 73 -6 15 -14 42 -17
60 -3 17 -7 381 -9 808 l-4 775 78 -1 c101 -2 171 -26 220 -74 57 -57 117
-171 166 -316 39 -114 130 -366 173 -479 22 -58 131 -357 171 -471 19 -55 39
-109 44 -120 5 -11 29 -77 53 -146 54 -155 75 -201 116 -257 57 -79 39 -77
621 -77 393 1 522 4 546 14 54 22 72 82 43 148 -18 40 -26 47 -115 88 -196 91
-249 174 -435 685 -62 168 -135 366 -162 440 -28 74 -70 190 -94 257 -52 146
-84 212 -132 273 -60 75 -114 118 -187 149 -106 45 -281 85 -358 84 -15 0 -26
1 -24 4 5 4 29 9 102 18 205 25 476 130 657 253 159 109 269 282 318 502 15
69 18 114 15 240 -2 85 -6 166 -9 180 -11 54 -15 68 -29 116 -50 167 -181 351
-319 444 -31 22 -90 56 -130 75 -40 20 -81 41 -91 46 -31 17 -144 57 -222 79
-80 23 -98 26 -155 35 -20 3 -47 8 -60 11 -14 4 -477 7 -1030 8 -911 1 -1007
-1 -1041 -15z m1609 -235 c76 -20 163 -74 218 -137 78 -89 167 -310 192 -480
17 -109 12 -368 -8 -460 -82 -376 -316 -592 -652 -602 l-88 -2 -1 746 c-1 410
0 757 0 771 3 43 31 117 51 135 55 50 162 60 288 29z"/>
</g>
</svg>
