<svg id="Layer_1" data-name="Layer 1" xmlns="http://www.w3.org/2000/svg" viewBox="0 0 100 100"><defs><style>.cls-1{fill:#fff;}</style></defs><title>swiperWhite</title><path class="cls-1" d="M41.51,25.14A11.25,11.25,0,1,1,52.75,13.89,11.25,11.25,0,0,1,41.51,25.14Zm0-19.94a8.7,8.7,0,1,0,8.69,8.69A8.7,8.7,0,0,0,41.51,5.2Z"/><path class="cls-1" d="M68.22,11.84,61.8,5.42A1.79,1.79,0,1,0,59.27,8c2.76,2.76,3.35,3.37,3.35,3.37H51.91V14.9H62.63l-3.31,3.31a1.79,1.79,0,1,0,2.53,2.53l6.37-6.37A1.79,1.79,0,0,0,68.22,11.84Z"/><path class="cls-1" d="M15.33,14.32l6.42,6.42a1.79,1.79,0,1,0,2.53-2.53l-3.36-3.36H31.63V11.26H20.91L24.22,8A1.79,1.79,0,1,0,21.7,5.42l-6.37,6.37A1.79,1.79,0,0,0,15.33,14.32Z"/><path class="cls-1" d="M81.2,45.75a5.64,5.64,0,0,0-5.59-5.7H75.5a5.63,5.63,0,0,0-5.57,5.3V42.56a5.64,5.64,0,0,0-5.59-5.69h-.11a5.63,5.63,0,0,0-5.57,5.29V39.37a5.64,5.64,0,0,0-5.58-5.69H53A5.63,5.63,0,0,0,47.39,39V14.42a5.64,5.64,0,0,0-5.58-5.7H41.7a5.64,5.64,0,0,0-5.59,5.7v35.4a12,12,0,0,0-1.69.18V42.19A8.5,8.5,0,0,0,26,33.6h-.94a1.71,1.71,0,0,0-1.7,1.73V68.72A28.63,28.63,0,0,0,52,97.35h.58A28.64,28.64,0,0,0,81,71.81h.17Z"/></svg>